<svg width="285" height="53" viewBox="0 0 285 53" fill="none" xmlns="http://www.w3.org/2000/svg">
<path d="M9.055e-06 48.8549V2.70307e-05H17.6269V5.38603H6.47409V43.4689H17.6269V48.8549H9.055e-06ZM40.7818 36.2331H40.401C39.6756 37.9378 38.66 39.3342 37.3543 40.4222C36.0849 41.474 34.3258 42 32.0771 42C30.5176 42 29.0849 41.7098 27.7792 41.1295C26.5098 40.5492 25.4036 39.6606 24.4606 38.4637C23.5538 37.2668 22.8285 35.7435 22.2844 33.8938C21.7766 32.044 21.5228 29.8497 21.5228 27.3109C21.5228 24.772 21.7766 22.5777 22.2844 20.728C22.8285 18.8782 23.5538 17.3549 24.4606 16.158C25.4036 14.9611 26.5098 14.0725 27.7792 13.4922C29.0849 12.9119 30.5176 12.6218 32.0771 12.6218C33.2015 12.6218 34.1989 12.7668 35.0694 13.057C35.9398 13.3472 36.7015 13.7461 37.3543 14.2539C38.0435 14.7617 38.6238 15.3782 39.0953 16.1036C39.603 16.7927 40.0383 17.5544 40.401 18.3886H40.7818V1.08811H48.8336V41.3471H40.7818V36.2331ZM35.559 35.7435C36.9735 35.7435 38.1885 35.3989 39.2041 34.7098C40.2559 34.0207 40.7818 32.9326 40.7818 31.4456V23.1762C40.7818 21.6891 40.2559 20.601 39.2041 19.9119C38.1885 19.2228 36.9735 18.8782 35.559 18.8782C33.7455 18.8782 32.3492 19.4404 31.3699 20.5648C30.3906 21.6528 29.901 23.1762 29.901 25.1347V29.487C29.901 31.4456 30.3906 32.987 31.3699 34.1114C32.3492 35.1994 33.7455 35.7435 35.559 35.7435ZM52.7838 35.0906H59.2579V19.5311H52.7838V13.2746H67.3097V21.2176H67.6905C67.9444 20.2021 68.289 19.2228 68.7242 18.2798C69.1957 17.3005 69.776 16.4482 70.4652 15.7228C71.1905 14.9611 72.061 14.3627 73.0765 13.9275C74.0921 13.4922 75.289 13.2746 76.6672 13.2746H79.333V20.6736H73.3486C71.3538 20.6736 69.8486 21.272 68.833 22.4689C67.8175 23.6295 67.3097 25.0622 67.3097 26.7668V35.0906H76.5584V41.3471H52.7838V35.0906ZM100.801 2.70307e-05V48.8549H83.1744V43.4689H94.3273V5.38603H83.1744V2.70307e-05H100.801Z" fill="#F54A00"/>
<path d="M124.555 42C119.84 42 116.267 40.6943 113.837 38.0829C111.407 35.4715 110.192 31.9171 110.192 27.4197C110.192 25.1347 110.5 23.0855 111.117 21.272C111.77 19.4223 112.676 17.8627 113.837 16.5933C115.034 15.2876 116.467 14.3083 118.135 13.6554C119.84 12.9663 121.744 12.6218 123.847 12.6218C125.951 12.6218 127.837 12.9663 129.505 13.6554C131.174 14.3083 132.588 15.2513 133.749 16.4845C134.91 17.7176 135.798 19.2228 136.415 21C137.068 22.7409 137.394 24.6995 137.394 26.8756V29.2694H118.189V29.759C118.189 31.5725 118.752 33.0414 119.876 34.1658C121 35.2539 122.651 35.7979 124.827 35.7979C126.495 35.7979 127.928 35.4896 129.125 34.873C130.322 34.2202 131.355 33.3678 132.226 32.316L136.578 37.0492C135.49 38.3912 133.967 39.5518 132.008 40.531C130.049 41.5103 127.565 42 124.555 42ZM123.902 18.3886C122.161 18.3886 120.765 18.9326 119.713 20.0207C118.697 21.0725 118.189 22.5052 118.189 24.3186V24.7539H129.505V24.3186C129.505 22.4689 128.998 21.0181 127.982 19.9663C127.003 18.9145 125.643 18.3886 123.902 18.3886ZM140.365 41.3471V13.2746H148.417V18.3886H148.743C149.07 17.5907 149.469 16.8471 149.94 16.158C150.412 15.4689 150.974 14.8705 151.627 14.3627C152.316 13.8187 153.096 13.4016 153.966 13.1114C154.873 12.785 155.888 12.6218 157.013 12.6218C158.355 12.6218 159.588 12.8575 160.712 13.329C161.836 13.7643 162.798 14.4352 163.596 15.342C164.393 16.2487 165.01 17.3549 165.445 18.6606C165.917 19.9663 166.153 21.4715 166.153 23.1762V41.3471H158.101V24.2642C158.101 20.6373 156.523 18.8238 153.368 18.8238C152.751 18.8238 152.134 18.9145 151.518 19.0959C150.938 19.2409 150.412 19.4948 149.94 19.8575C149.469 20.1839 149.088 20.601 148.798 21.1088C148.544 21.6166 148.417 22.215 148.417 22.9041V41.3471H140.365ZM197.903 44.1761C197.903 47.1502 196.652 49.3445 194.149 50.759C191.647 52.1735 187.712 52.8808 182.344 52.8808C179.66 52.8808 177.447 52.7176 175.706 52.3911C173.965 52.101 172.569 51.6657 171.517 51.0854C170.502 50.5051 169.776 49.816 169.341 49.0181C168.942 48.2202 168.743 47.3497 168.743 46.4067C168.743 44.8108 169.214 43.5958 170.157 42.7616C171.1 41.9637 172.424 41.3471 174.129 40.9119V40.5855C172.932 40.2228 171.971 39.715 171.245 39.0621C170.556 38.373 170.212 37.4119 170.212 36.1787C170.212 34.8005 170.665 33.7849 171.572 33.1321C172.515 32.4792 173.748 31.9715 175.271 31.6088V31.2824C173.603 30.4844 172.297 29.3601 171.354 27.9093C170.447 26.4585 169.994 24.6995 169.994 22.6321C169.994 21 170.284 19.5674 170.864 18.3342C171.445 17.0648 172.261 16.013 173.313 15.1788C174.401 14.3446 175.688 13.7098 177.175 13.2746C178.662 12.8394 180.331 12.6218 182.18 12.6218C183.958 12.6218 185.608 12.8213 187.131 13.2202V11.6969C187.131 10.6088 187.512 9.70208 188.274 8.9767C189.035 8.25131 190.087 7.88862 191.429 7.88862H196.38V13.7643H189.634V14.2539C191.157 15.0518 192.336 16.158 193.17 17.5725C194.041 18.9508 194.476 20.6373 194.476 22.6321C194.476 24.2642 194.186 25.6969 193.605 26.93C193.025 28.1632 192.191 29.215 191.103 30.0855C190.015 30.9197 188.709 31.5544 187.186 31.9896C185.699 32.4248 184.03 32.6425 182.18 32.6425C181.346 32.6425 180.548 32.6062 179.787 32.5337C179.025 32.4248 178.3 32.2798 177.611 32.0984C177.212 32.316 176.867 32.5881 176.577 32.9145C176.323 33.2409 176.196 33.658 176.196 34.1658C176.196 34.601 176.305 34.9456 176.522 35.1994C176.74 35.4533 177.03 35.6528 177.393 35.7979C177.792 35.9067 178.245 35.9792 178.753 36.0155C179.261 36.0518 179.787 36.0699 180.331 36.0699H186.75C188.745 36.0699 190.45 36.2694 191.864 36.6684C193.279 37.0673 194.44 37.6295 195.346 38.3549C196.253 39.0803 196.906 39.9326 197.305 40.9119C197.704 41.8911 197.903 42.9792 197.903 44.1761ZM190.287 44.7746C190.287 44.0492 189.997 43.4689 189.416 43.0336C188.836 42.6347 187.73 42.4352 186.098 42.4352H176.468C175.743 43.0518 175.38 43.8134 175.38 44.7202C175.38 45.5906 175.743 46.2979 176.468 46.8419C177.23 47.4222 178.499 47.7124 180.276 47.7124H185.009C186.859 47.7124 188.201 47.4585 189.035 46.9507C189.87 46.443 190.287 45.7176 190.287 44.7746ZM182.18 27.5285C183.813 27.5285 184.991 27.1295 185.717 26.3316C186.478 25.5337 186.859 24.5181 186.859 23.285V21.9793C186.859 20.7461 186.478 19.7306 185.717 18.9326C184.991 18.1347 183.813 17.7357 182.18 17.7357C180.585 17.7357 179.424 18.1347 178.699 18.9326C177.973 19.7306 177.611 20.7461 177.611 21.9793V23.285C177.611 24.5181 177.973 25.5337 178.699 26.3316C179.424 27.1295 180.585 27.5285 182.18 27.5285ZM213.605 9.68395C211.791 9.68395 210.522 9.32126 209.796 8.59587C209.107 7.83421 208.763 6.92748 208.763 5.87567V4.29795C208.763 3.20987 209.107 2.30313 209.796 1.57775C210.522 0.852358 211.791 0.489664 213.605 0.489664C215.418 0.489664 216.67 0.852358 217.359 1.57775C218.084 2.30313 218.447 3.20987 218.447 4.29795V5.87567C218.447 6.92748 218.084 7.83421 217.359 8.59587C216.67 9.32126 215.418 9.68395 213.605 9.68395ZM200.657 35.0906H209.579V19.5311H200.657V13.2746H217.631V35.0906H225.9V41.3471H200.657V35.0906ZM228.436 41.3471V13.2746H236.488V18.3886H236.814C237.14 17.5907 237.539 16.8471 238.011 16.158C238.482 15.4689 239.045 14.8705 239.697 14.3627C240.387 13.8187 241.166 13.4016 242.037 13.1114C242.944 12.785 243.959 12.6218 245.083 12.6218C246.425 12.6218 247.659 12.8575 248.783 13.329C249.907 13.7643 250.868 14.4352 251.666 15.342C252.464 16.2487 253.081 17.3549 253.516 18.6606C253.988 19.9663 254.223 21.4715 254.223 23.1762V41.3471H246.172V24.2642C246.172 20.6373 244.594 18.8238 241.438 18.8238C240.822 18.8238 240.205 18.9145 239.589 19.0959C239.008 19.2409 238.482 19.4948 238.011 19.8575C237.539 20.1839 237.159 20.601 236.868 21.1088C236.615 21.6166 236.488 22.215 236.488 22.9041V41.3471H228.436ZM271.339 42C266.624 42 263.052 40.6943 260.622 38.0829C258.192 35.4715 256.977 31.9171 256.977 27.4197C256.977 25.1347 257.285 23.0855 257.902 21.272C258.554 19.4223 259.461 17.8627 260.622 16.5933C261.819 15.2876 263.251 14.3083 264.92 13.6554C266.624 12.9663 268.528 12.6218 270.632 12.6218C272.736 12.6218 274.622 12.9663 276.29 13.6554C277.959 14.3083 279.373 15.2513 280.534 16.4845C281.694 17.7176 282.583 19.2228 283.199 21C283.852 22.7409 284.179 24.6995 284.179 26.8756V29.2694H264.974V29.759C264.974 31.5725 265.536 33.0414 266.661 34.1658C267.785 35.2539 269.435 35.7979 271.611 35.7979C273.28 35.7979 274.712 35.4896 275.909 34.873C277.106 34.2202 278.14 33.3678 279.01 32.316L283.363 37.0492C282.275 38.3912 280.751 39.5518 278.793 40.531C276.834 41.5103 274.35 42 271.339 42ZM270.686 18.3886C268.946 18.3886 267.549 18.9326 266.497 20.0207C265.482 21.0725 264.974 22.5052 264.974 24.3186V24.7539H276.29V24.3186C276.29 22.4689 275.782 21.0181 274.767 19.9663C273.788 18.9145 272.427 18.3886 270.686 18.3886Z" fill="black"/>
</svg>
