<svg width="285" height="53" viewBox="0 0 285 53" fill="none" xmlns="http://www.w3.org/2000/svg">
<path d="M9.055e-06 48.8548V-3.48684e-06H17.6269V5.386H6.47409V43.4688H17.6269V48.8548H9.055e-06ZM40.7818 36.2331H40.401C39.6756 37.9378 38.66 39.3341 37.3543 40.4222C36.0849 41.474 34.3258 41.9999 32.0771 41.9999C30.5176 41.9999 29.0849 41.7098 27.7792 41.1295C26.5098 40.5492 25.4036 39.6606 24.4606 38.4637C23.5538 37.2668 22.8285 35.7435 22.2844 33.8937C21.7766 32.044 21.5228 29.8497 21.5228 27.3108C21.5228 24.772 21.7766 22.5777 22.2844 20.7279C22.8285 18.8782 23.5538 17.3549 24.4606 16.158C25.4036 14.9611 26.5098 14.0725 27.7792 13.4922C29.0849 12.9119 30.5176 12.6217 32.0771 12.6217C33.2015 12.6217 34.1989 12.7668 35.0694 13.057C35.9398 13.3471 36.7015 13.7461 37.3543 14.2539C38.0435 14.7616 38.6238 15.3782 39.0953 16.1036C39.603 16.7927 40.0383 17.5544 40.401 18.3886H40.7818V1.08808H48.8336V41.3471H40.7818V36.2331ZM35.559 35.7435C36.9735 35.7435 38.1885 35.3989 39.2041 34.7098C40.2559 34.0207 40.7818 32.9326 40.7818 31.4455V23.1761C40.7818 21.6891 40.2559 20.601 39.2041 19.9119C38.1885 19.2228 36.9735 18.8782 35.559 18.8782C33.7455 18.8782 32.3492 19.4404 31.3699 20.5647C30.3906 21.6528 29.901 23.1761 29.901 25.1347V29.487C29.901 31.4455 30.3906 32.987 31.3699 34.1113C32.3492 35.1994 33.7455 35.7435 35.559 35.7435ZM52.7838 35.0906H59.2579V19.5311H52.7838V13.2746H67.3097V21.2176H67.6905C67.9444 20.202 68.289 19.2228 68.7242 18.2798C69.1957 17.3005 69.776 16.4482 70.4652 15.7228C71.1905 14.9611 72.061 14.3627 73.0765 13.9274C74.0921 13.4922 75.289 13.2746 76.6672 13.2746H79.333V20.6735H73.3486C71.3538 20.6735 69.8486 21.272 68.833 22.4689C67.8175 23.6295 67.3097 25.0621 67.3097 26.7668V35.0906H76.5584V41.3471H52.7838V35.0906ZM100.801 -3.48684e-06V48.8548H83.1744V43.4688H94.3273V5.386H83.1744V-3.48684e-06H100.801Z" fill="#F54A00"/>
<path d="M124.555 41.9999C119.84 41.9999 116.267 40.6942 113.837 38.0828C111.407 35.4714 110.192 31.917 110.192 27.4196C110.192 25.1347 110.5 23.0855 111.117 21.272C111.77 19.4222 112.676 17.8627 113.837 16.5932C115.034 15.2875 116.467 14.3083 118.135 13.6554C119.84 12.9663 121.744 12.6217 123.847 12.6217C125.951 12.6217 127.837 12.9663 129.505 13.6554C131.174 14.3083 132.588 15.2513 133.749 16.4844C134.91 17.7176 135.798 19.2228 136.415 21C137.068 22.7409 137.394 24.6994 137.394 26.8756V29.2694H118.189V29.759C118.189 31.5725 118.752 33.0414 119.876 34.1657C121 35.2538 122.651 35.7979 124.827 35.7979C126.495 35.7979 127.928 35.4896 129.125 34.873C130.322 34.2201 131.355 33.3678 132.226 32.316L136.578 37.0492C135.49 38.3911 133.967 39.5517 132.008 40.531C130.049 41.5103 127.565 41.9999 124.555 41.9999ZM123.902 18.3886C122.161 18.3886 120.765 18.9326 119.713 20.0207C118.697 21.0725 118.189 22.5051 118.189 24.3186V24.7538H129.505V24.3186C129.505 22.4689 128.998 21.0181 127.982 19.9663C127.003 18.9145 125.643 18.3886 123.902 18.3886ZM140.365 41.3471V13.2746H148.417V18.3886H148.743C149.07 17.5906 149.469 16.8471 149.94 16.158C150.412 15.4689 150.974 14.8704 151.627 14.3627C152.316 13.8186 153.096 13.4015 153.966 13.1114C154.873 12.7849 155.888 12.6217 157.013 12.6217C158.355 12.6217 159.588 12.8575 160.712 13.329C161.836 13.7642 162.798 14.4352 163.596 15.3419C164.393 16.2487 165.01 17.3549 165.445 18.6606C165.917 19.9663 166.153 21.4715 166.153 23.1761V41.3471H158.101V24.2642C158.101 20.6373 156.523 18.8238 153.368 18.8238C152.751 18.8238 152.134 18.9145 151.518 19.0958C150.938 19.2409 150.412 19.4948 149.94 19.8575C149.469 20.1839 149.088 20.601 148.798 21.1088C148.544 21.6165 148.417 22.215 148.417 22.9041V41.3471H140.365ZM197.903 44.1761C197.903 47.1502 196.652 49.3445 194.149 50.759C191.647 52.1735 187.712 52.8807 182.344 52.8807C179.66 52.8807 177.447 52.7175 175.706 52.3911C173.965 52.1009 172.569 51.6657 171.517 51.0854C170.502 50.5051 169.776 49.816 169.341 49.018C168.942 48.2201 168.743 47.3497 168.743 46.4067C168.743 44.8108 169.214 43.5958 170.157 42.7616C171.1 41.9637 172.424 41.3471 174.129 40.9118V40.5854C172.932 40.2227 171.971 39.715 171.245 39.0621C170.556 38.373 170.212 37.4118 170.212 36.1787C170.212 34.8005 170.665 33.7849 171.572 33.1321C172.515 32.4792 173.748 31.9714 175.271 31.6088V31.2823C173.603 30.4844 172.297 29.3601 171.354 27.9093C170.447 26.4585 169.994 24.6994 169.994 22.6321C169.994 21 170.284 19.5673 170.864 18.3342C171.445 17.0647 172.261 16.0129 173.313 15.1787C174.401 14.3445 175.688 13.7098 177.175 13.2746C178.662 12.8394 180.331 12.6217 182.18 12.6217C183.958 12.6217 185.608 12.8212 187.131 13.2202V11.6969C187.131 10.6088 187.512 9.70205 188.274 8.97667C189.035 8.25128 190.087 7.88859 191.429 7.88859H196.38V13.7642H189.634V14.2539C191.157 15.0518 192.336 16.158 193.17 17.5725C194.041 18.9507 194.476 20.6373 194.476 22.6321C194.476 24.2642 194.186 25.6968 193.605 26.93C193.025 28.1632 192.191 29.215 191.103 30.0854C190.015 30.9196 188.709 31.5543 187.186 31.9896C185.699 32.4248 184.03 32.6424 182.18 32.6424C181.346 32.6424 180.548 32.6062 179.787 32.5336C179.025 32.4248 178.3 32.2797 177.611 32.0984C177.212 32.316 176.867 32.588 176.577 32.9144C176.323 33.2409 176.196 33.658 176.196 34.1657C176.196 34.601 176.305 34.9455 176.522 35.1994C176.74 35.4533 177.03 35.6528 177.393 35.7979C177.792 35.9067 178.245 35.9792 178.753 36.0155C179.261 36.0517 179.787 36.0699 180.331 36.0699H186.75C188.745 36.0699 190.45 36.2694 191.864 36.6683C193.279 37.0673 194.44 37.6295 195.346 38.3549C196.253 39.0802 196.906 39.9326 197.305 40.9118C197.704 41.8911 197.903 42.9792 197.903 44.1761ZM190.287 44.7745C190.287 44.0491 189.997 43.4688 189.416 43.0336C188.836 42.6346 187.73 42.4352 186.098 42.4352H176.468C175.743 43.0517 175.38 43.8134 175.38 44.7201C175.38 45.5906 175.743 46.2978 176.468 46.8419C177.23 47.4222 178.499 47.7124 180.276 47.7124H185.009C186.859 47.7124 188.201 47.4585 189.035 46.9507C189.87 46.4429 190.287 45.7175 190.287 44.7745ZM182.18 27.5284C183.813 27.5284 184.991 27.1295 185.717 26.3316C186.478 25.5336 186.859 24.5181 186.859 23.2849V21.9792C186.859 20.7461 186.478 19.7305 185.717 18.9326C184.991 18.1347 183.813 17.7357 182.18 17.7357C180.585 17.7357 179.424 18.1347 178.699 18.9326C177.973 19.7305 177.611 20.7461 177.611 21.9792V23.2849C177.611 24.5181 177.973 25.5336 178.699 26.3316C179.424 27.1295 180.585 27.5284 182.18 27.5284ZM213.605 9.68392C211.791 9.68392 210.522 9.32122 209.796 8.59584C209.107 7.83418 208.763 6.92745 208.763 5.87564V4.29792C208.763 3.20984 209.107 2.3031 209.796 1.57772C210.522 0.852328 211.791 0.489633 213.605 0.489633C215.418 0.489633 216.67 0.852328 217.359 1.57772C218.084 2.3031 218.447 3.20984 218.447 4.29792V5.87564C218.447 6.92745 218.084 7.83418 217.359 8.59584C216.67 9.32122 215.418 9.68392 213.605 9.68392ZM200.657 35.0906H209.579V19.5311H200.657V13.2746H217.631V35.0906H225.9V41.3471H200.657V35.0906ZM228.436 41.3471V13.2746H236.488V18.3886H236.814C237.14 17.5906 237.539 16.8471 238.011 16.158C238.482 15.4689 239.045 14.8704 239.697 14.3627C240.387 13.8186 241.166 13.4015 242.037 13.1114C242.944 12.7849 243.959 12.6217 245.083 12.6217C246.425 12.6217 247.659 12.8575 248.783 13.329C249.907 13.7642 250.868 14.4352 251.666 15.3419C252.464 16.2487 253.081 17.3549 253.516 18.6606C253.988 19.9663 254.223 21.4715 254.223 23.1761V41.3471H246.172V24.2642C246.172 20.6373 244.594 18.8238 241.438 18.8238C240.822 18.8238 240.205 18.9145 239.589 19.0958C239.008 19.2409 238.482 19.4948 238.011 19.8575C237.539 20.1839 237.159 20.601 236.868 21.1088C236.615 21.6165 236.488 22.215 236.488 22.9041V41.3471H228.436ZM271.339 41.9999C266.624 41.9999 263.052 40.6942 260.622 38.0828C258.192 35.4714 256.977 31.917 256.977 27.4196C256.977 25.1347 257.285 23.0855 257.902 21.272C258.554 19.4222 259.461 17.8627 260.622 16.5932C261.819 15.2875 263.251 14.3083 264.92 13.6554C266.624 12.9663 268.528 12.6217 270.632 12.6217C272.736 12.6217 274.622 12.9663 276.29 13.6554C277.959 14.3083 279.373 15.2513 280.534 16.4844C281.694 17.7176 282.583 19.2228 283.199 21C283.852 22.7409 284.179 24.6994 284.179 26.8756V29.2694H264.974V29.759C264.974 31.5725 265.536 33.0414 266.661 34.1657C267.785 35.2538 269.435 35.7979 271.611 35.7979C273.28 35.7979 274.712 35.4896 275.909 34.873C277.106 34.2201 278.14 33.3678 279.01 32.316L283.363 37.0492C282.275 38.3911 280.751 39.5517 278.793 40.531C276.834 41.5103 274.35 41.9999 271.339 41.9999ZM270.686 18.3886C268.946 18.3886 267.549 18.9326 266.497 20.0207C265.482 21.0725 264.974 22.5051 264.974 24.3186V24.7538H276.29V24.3186C276.29 22.4689 275.782 21.0181 274.767 19.9663C273.788 18.9145 272.427 18.3886 270.686 18.3886Z" fill="white"/>
</svg>
