<svg width="121" height="121" viewBox="0 0 121 121" fill="none" xmlns="http://www.w3.org/2000/svg">
<path d="M9.95594 88.5078V39.6529H27.5829V45.0389H16.43V83.1218H27.5829V88.5078H9.95594ZM50.7377 75.886H50.3569C49.6315 77.5907 48.616 78.9871 47.3103 80.0751C46.0408 81.1269 44.2818 81.6528 42.0331 81.6528C40.4735 81.6528 39.0409 81.3627 37.7352 80.7824C36.4657 80.2021 35.3595 79.3135 34.4165 78.1166C33.5098 76.9197 32.7844 75.3964 32.2404 73.5466C31.7326 71.6969 31.4787 69.5026 31.4787 66.9638C31.4787 64.4249 31.7326 62.2306 32.2404 60.3809C32.7844 58.5311 33.5098 57.0078 34.4165 55.8109C35.3595 54.614 36.4657 53.7254 37.7352 53.1451C39.0409 52.5648 40.4735 52.2747 42.0331 52.2747C43.1574 52.2747 44.1548 52.4197 45.0253 52.7099C45.8958 53 46.6574 53.399 47.3103 53.9068C47.9994 54.4146 48.5797 55.0311 49.0512 55.7565C49.559 56.4456 49.9942 57.2073 50.3569 58.0415H50.7377V40.741H58.7895V81H50.7377V75.886ZM45.5149 75.3964C46.9294 75.3964 48.1445 75.0518 49.16 74.3627C50.2118 73.6736 50.7377 72.5855 50.7377 71.0985V62.829C50.7377 61.342 50.2118 60.2539 49.16 59.5648C48.1445 58.8757 46.9294 58.5311 45.5149 58.5311C43.7015 58.5311 42.3051 59.0933 41.3258 60.2177C40.3466 61.3057 39.8569 62.829 39.8569 64.7876V69.1399C39.8569 71.0985 40.3466 72.6399 41.3258 73.7643C42.3051 74.8523 43.7015 75.3964 45.5149 75.3964ZM62.7398 74.7435H69.2139V59.184H62.7398V52.9275H77.2657V60.8705H77.6465C77.9004 59.855 78.2449 58.8757 78.6802 57.9327C79.1517 56.9534 79.732 56.1011 80.4211 55.3757C81.1465 54.614 82.0169 54.0156 83.0325 53.5804C84.048 53.1451 85.2449 52.9275 86.6231 52.9275H89.2889V60.3265H83.3045C81.3097 60.3265 79.8045 60.9249 78.789 62.1218C77.7734 63.2824 77.2657 64.7151 77.2657 66.4197V74.7435H86.5143V81H62.7398V74.7435ZM110.757 39.6529V88.5078H93.1304V83.1218H104.283V45.0389H93.1304V39.6529H110.757Z" fill="#F54A00"/>
</svg>
